# xmcd CD database file
#
# Track frame offsets:
#	150
#	19596
#	38379
#	55437
#	69981
#	79020
#	92401
#	107516
#	119191
#	136211
#	149393
#	163520
#	178272
#	198476
#	214678
#	238741
#
# Disc length: 3319 seconds
#
# Revision: 2
# Processed by: cddbd v1.5.2PL0 Copyright (c) Steve Scherf et al.
# Submitted via: CDex 1.70beta2
#
DISCID=db0cf510
DTITLE=Bill Withers - Lean On Me - The Collection
DYEAR=2010
DGENRE=Soul
TTITLE0=Lean On Me
TTITLE1=Lovely Day
TTITLE2=Use Me
TTITLE3=Who Is He? (And What Is He To You?)
TTITLE4=Grandma's Hands
TTITLE5=Ain't No Sunshine
TTITLE6=Harlem
TTITLE7=Let It Be
TTITLE8=Kissing My Love
TTITLE9=Moanin' And Groanin'
TTITLE10=Green Grass
TTITLE11=Ruby Lee
TTITLE12=Friend Of Mine
TTITLE13=Lonely Town, Lonely Street
TTITLE14=You
TTITLE15=Better Off Dead
EXTD=YEAR: 2010
EXTT0=
EXTT1=
EXTT2=
EXTT3=
EXTT4=
EXTT5=
EXTT6=
EXTT7=
EXTT8=
EXTT9=
EXTT10=
EXTT11=
EXTT12=
EXTT13=
EXTT14=
EXTT15=
PLAYORDER=
